# xmcd
# Track frame offsets:
# 150
# 14553
# 34123
# 45263
# 61457
# 76800
# 89390
# 103846
# 121070
# 138407
#
# Disc length: 2036 seconds
# Revision: 0
# Processed by: cddbd v1.4PL0 Copyright (c) Steve Scherf et al.
# Submitted via: VisiTrax 2.9.5.180 - For more info visit www.synapsa.com
#
DISCID=7907f20a
DTITLE=Kerrigan La-Brooy - Love has let me down
DYEAR=1900
DGENRE=
TTITLE0=Love has let me down
TTITLE1=Heaven redeemed heiress, princess Di
TTITLE2=Take these chains from my heart
TTITLE3=Don't worry
TTITLE4=Photograph of you
TTITLE5=Whiskey under the bridge
TTITLE6=Crazy arms
TTITLE7=Like I do tonight
TTITLE8=Livin' on love
TTITLE9=Girl from Tamworth
EXTD=
EXTT0=
EXTT1=
EXTT2=
EXTT3=
EXTT4=
EXTT5=
EXTT6=
EXTT7=
EXTT8=
EXTT9=
PLAYORDER=
